<svg fill="none" height="16" viewBox="0 0 10 16" width="10" xmlns="http://www.w3.org/2000/svg"><path d="m.959959 8.96001c-.18759-.18736-.2931-.44154-.293333-.70667v-.50667c.003072-.26455.108155-.5177.293333-.70666l6.853331-6.840003c.12518-.1262089.29558-.19719938.47334-.19719938.17775 0 .34815.07099048.47333.19719938l.94667.946663c.12541.12289.19609.29108.19609.46667s-.07068.34378-.19609.46667l-5.93334 5.92 5.93334 5.91999c.1262.1252.19719.2956.19719.4733 0 .1778-.07099.3482-.19719.4734l-.94667.9333c-.12518.1262-.29558.1972-.47333.1972-.17776 0-.34816-.071-.47334-.1972z" fill="#333"/></svg>