<svg fill="none" height="18" viewBox="0 0 19 18" width="19" xmlns="http://www.w3.org/2000/svg"><g fill="#000814"><path d="m1.6543 0c-.55229 0-1.000003.447715-1.000003 1 0 .55228.447713 1 1.000003 1h16c.5523 0 1-.44772 1-1 0-.552285-.4477-1-1-1z"/><path d="m16.6543 5c0-.55229-.4477-1-1-1s-1 .44771-1 1v10c0 .5523-.4477 1-1 1h-8c-.55229 0-1-.4477-1-1v-10c0-.55229-.44772-1-1-1-.55229 0-1 .44771-1 1v10c0 1.6569 1.34314 3 3 3h8c1.6569 0 3-1.3431 3-3z"/><path d="m7.6543 6c.55228 0 1 .44771 1 1v6c0 .5523-.44772 1-1 1-.55229 0-1-.4477-1-1v-6c0-.55229.44771-1 1-1z"/><path d="m12.6543 7c0-.55229-.4477-1-1-1s-1 .44771-1 1v6c0 .5523.4477 1 1 1s1-.4477 1-1z"/></g></svg>