<svg fill="none" height="18" viewBox="0 0 5 18" width="5" xmlns="http://www.w3.org/2000/svg"><path d="m2.6543 4c.39556 0 .78224-.1173 1.11114-.33706s.58524-.53212.73662-.89757c.15137-.36545.19098-.76759.11381-1.15555s-.26765-.744328-.54736-1.024033c-.2797-.279705-.63607-.470186-1.02403-.5473567-.38796-.0771704-.7901-.03756374-1.15555.1138117-.36545.151375-.67781.40772-.897571.736618-.219763.3289-.337061.71558-.337061 1.11114 0 .53043.210714 1.03914.585782 1.41421.37508.37508.88379.58579 1.41422.58579zm0 10c-.39556 0-.78224.1173-1.11114.3371-.3289.2197-.585246.5321-.736621.8975-.151376.3655-.190982.7676-.113812 1.1556.077171.3879.267653.7443.547353 1.024.27971.2797.63608.4702 1.02404.5474.38796.0771.79009.0375 1.15554-.1138.36546-.1514.67781-.4078.89758-.7367.21976-.3289.33706-.7155.33706-1.1111 0-.5304-.21072-1.0391-.58579-1.4142s-.88378-.5858-1.41421-.5858zm0-7c-.39556 0-.78224.1173-1.11114.33706s-.585246.53212-.736621.89757c-.151376.36546-.190982.76759-.113812 1.15555.077171.38796.267653.74432.547353 1.02402.27971.2797.63608.4702 1.02404.5474.38796.0771.79009.0375 1.15554-.1138.36546-.1514.67781-.4078.89758-.7367.21976-.32886.33706-.71554.33706-1.1111 0-.53043-.21072-1.03914-.58579-1.41421-.37507-.37508-.88378-.58579-1.41421-.58579z" fill="#888"/></svg>