<svg fill="none" height="19" viewBox="0 0 22 19" width="22" xmlns="http://www.w3.org/2000/svg"><path d="m1.39984 1.04125.60957-.844686c-.31715-.2288714-.73577-.2608047-1.083965-.082687-.348194.178118-.567274.536268-.567274.927373zm0 16.16505h-1.041669c0 .3911.21908.7492.567274.9273.348195.1782.766815.1462 1.083965-.0826zm11.19996-8.08254.6096.84469c.2714-.19582.4321-.51007.4321-.84469s-.1607-.64887-.4321-.84469zm-12.241629-8.08251v16.16505h2.083339v-16.16505zm1.651239 17.00975 11.19999-8.08255-1.2191-1.68938-11.200031 8.08253zm11.19999-9.77193-11.19999-8.082506-1.219141 1.689376 11.200031 8.08251zm6.3488-8.046068v17.781498h2.0833v-17.781498z" fill="#091127"/></svg>