<svg fill="none" height="19" viewBox="0 0 22 19" width="22" xmlns="http://www.w3.org/2000/svg"><path d="m20.6 17.2063-.6096.8447c.3172.2288.7358.2608 1.084.0827.3482-.1782.5673-.5363.5673-.9274zm0-16.16505h1.0417c0-.391105-.2191-.749256-.5673-.927374-.3482-.1781174-.7668-.1461827-1.084.082688zm-11.19999 8.08251-.60957-.84469c-.27135.19582-.4321.51007-.4321.84469 0 .33463.16075.64888.4321.84469zm12.24169 8.08254v-16.16505h-2.0834v16.16505zm-1.6513-17.009736-11.19996 8.082506 1.21916 1.68938 11.2-8.08251zm-11.19996 9.771886 11.19996 8.08255 1.2192-1.6894-11.2-8.08253zm-6.34876 8.04605v-17.781498h-2.083343v17.781498z" fill="#091127"/></svg>