<svg fill="none" height="46" viewBox="0 0 45 46" width="45" xmlns="http://www.w3.org/2000/svg"><path d="m44.2125 1.04c-.2453-.210472-.533-.365639-.8436-.454939s-.6368-.110637-.9564-.062558l-29.25 4.499997c-.5327.08082-1.0186.35008-1.3696.75885-.351.40876-.5436.92989-.5429 1.46865v23.2875c-1.0513-.5135-2.20502-.7827-3.375-.7875-1.55752 0-3.08008.4619-4.37511 1.3272-1.29504.8653-2.3044 2.0952-2.900438 3.5342-.59603989 1.4389-.751991 3.0223-.448133 4.5499.303859 1.5276 1.053881 2.9308 2.155221 4.0322 1.10134 1.1013 2.50453 1.8513 4.03213 2.1552 1.5276.3038 3.111.1479 4.54993-.4481 1.439-.5961 2.6689-1.6054 3.5342-2.9005.8653-1.295 1.3272-2.8176 1.3272-4.3751v-17.19l24.75-3.8025v9.405c-1.0513-.5135-2.205-.7827-3.375-.7875-1.5575 0-3.0801.4619-4.3751 1.3272s-2.3044 2.0952-2.9004 3.5342c-.5961 1.4389-.752 3.0223-.4482 4.5499.3039 1.5276 1.0539 2.9308 2.1552 4.0322 1.1014 1.1013 2.5046 1.8513 4.0322 2.1552 1.5276.3038 3.111.1479 4.5499-.4481 1.439-.5961 2.6689-1.6054 3.5342-2.9005.8653-1.295 1.3272-2.8176 1.3272-4.3751v-30.375c0-.32499-.0704-.64613-.2063-.94132s-.3342-.55743-.5812-.76868zm-36.3375 39.96c-.66751 0-1.32003-.1979-1.87505-.5688-.55501-.3708-.98759-.8979-1.24304-1.5146s-.32228-1.2953-.19206-1.95c.13023-.6547.45167-1.2561.92367-1.7281s1.07337-.7934 1.72805-.9236c.65469-.1303 1.33329-.0634 1.94999.192.6167.2555 1.14384.688 1.51464 1.2431.3709.555.5688 1.2075.5688 1.875 0 .8951-.3556 1.7536-.9885 2.3865-.63295.6329-1.49139.9885-2.3865.9885zm29.25-4.5c-.6675 0-1.32-.1979-1.875-.5688-.5551-.3708-.9876-.8979-1.2431-1.5146-.2554-.6167-.3223-1.2953-.192-1.95.1302-.6547.4516-1.2561.9236-1.7281s1.0734-.7934 1.7281-.9236c.6547-.1303 1.3333-.0634 1.95.192.6167.2555 1.1438.688 1.5146 1.2431.3709.555.5688 1.2075.5688 1.875 0 .8951-.3556 1.7536-.9885 2.3865s-1.4914.9885-2.3865.9885zm3.375-24.435-24.75 3.8025v-6.75l24.75-3.735z" fill="#7aa6ed"/></svg>