<svg fill="none" height="46" viewBox="0 0 46 46" width="46" xmlns="http://www.w3.org/2000/svg"><path d="m15.5975 13.3475 5.1525-5.175v21.5775c0 .5967.2371 1.169.659 1.591.422.4219.9943.659 1.591.659s1.169-.2371 1.591-.659c.4219-.422.659-.9943.659-1.591v-21.5775l5.1525 5.175c.2092.2109.458.3783.7322.4925s.5683.173.8653.173.5911-.0588.8653-.173.523-.2816.7322-.4925c.2109-.2092.3783-.458.4925-.7322s.173-.5683.173-.8653-.0588-.5911-.173-.8653-.2816-.523-.4925-.7322l-9-9c-.214-.204846-.4663-.365417-.7425-.472504-.5478-.225041-1.1622-.225041-1.71 0-.2762.107087-.5285.267658-.7425.472504l-9 9c-.2098.2098-.3762.4588-.4897.7329-.1136.2741-.172.5679-.172.8646s.0584.5905.172.8646c.1135.2741.2799.5231.4897.7329s.4588.3762.7329.4897c.2741.1136.5679.172.8646.172s.5905-.0584.8646-.172c.2741-.1135.5231-.2799.7329-.4897zm27.6525 9.6525c-.5967 0-1.169.237-1.591.659-.4219.422-.659.9943-.659 1.591v13.5c0 .5967-.2371 1.169-.659 1.591-.422.4219-.9943.659-1.591.659h-31.5c-.59674 0-1.16903-.2371-1.59099-.659-.42196-.422-.65901-.9943-.65901-1.591v-13.5c0-.5967-.23705-1.169-.65901-1.591s-.99425-.659-1.59099-.659-1.16903.237-1.59099.659c-.421957.422-.65901.9943-.65901 1.591v13.5c0 1.7902.71116 3.5071 1.97703 4.773 1.26587 1.2658 2.98276 1.977 4.77297 1.977h31.5c1.7902 0 3.5071-.7112 4.773-1.977 1.2658-1.2659 1.977-2.9828 1.977-4.773v-13.5c0-.5967-.2371-1.169-.659-1.591-.422-.422-.9943-.659-1.591-.659z" fill="#9e9e9e"/></svg>